<?xml version="1.0" standalone="no"?>
<!DOCTYPE svg PUBLIC "-//W3C//DTD SVG 20010904//EN"
 "http://www.w3.org/TR/2001/REC-SVG-20010904/DTD/svg10.dtd">
<svg version="1.0" xmlns="http://www.w3.org/2000/svg"
 width="500.000000pt" height="500.000000pt" viewBox="0 0 500.000000 500.000000"
 preserveAspectRatio="xMidYMid meet">

<g transform="translate(0.000000,500.000000) scale(0.100000,-0.100000)"
fill="#000000" stroke="none">
<path d="M1928 4138 c-3 -370 -4 -385 -26 -440 -41 -102 -133 -158 -262 -158
-173 0 -264 87 -285 273 l-6 57 -271 0 -271 0 6 -82 c14 -179 70 -311 172
-406 117 -110 263 -162 517 -184 161 -14 359 -1 498 32 187 45 327 145 396
285 67 135 67 138 71 593 l4 412 -270 0 -270 0 -3 -382z"/>
<path d="M2700 3870 l0 -650 270 0 270 0 0 260 0 260 400 0 400 0 0 125 0 125
-400 0 -400 0 0 105 0 105 475 0 475 0 0 160 0 160 -745 0 -745 0 0 -650z"/>
<path d="M3255 1939 c-445 -61 -684 -315 -662 -705 21 -379 274 -586 763 -626
257 -21 488 13 654 94 47 23 89 42 94 42 5 1 18 -25 29 -56 l19 -58 114 0 114
0 0 325 0 325 -370 0 -370 0 0 -115 0 -115 107 0 c104 0 106 0 89 -19 -69 -77
-364 -107 -508 -52 -62 24 -128 83 -158 141 -29 57 -43 151 -31 215 28 152
132 247 287 263 150 15 266 -13 341 -85 l36 -33 289 0 289 0 -7 23 c-3 12 -19
47 -34 78 -86 170 -251 283 -499 340 -68 16 -131 21 -301 24 -118 2 -246 -1
-285 -6z"/>
<path d="M677 1923 c-4 -3 -7 -296 -7 -650 l0 -643 275 0 275 0 0 183 0 184
293 6 c401 9 575 35 718 107 84 43 134 92 171 168 30 60 33 77 36 169 3 78 0
115 -14 155 -66 202 -250 290 -665 318 -161 11 -1072 14 -1082 3z m1108 -337
c79 -19 115 -57 115 -120 0 -57 -33 -98 -92 -115 -54 -17 -251 -30 -440 -31
l-148 0 0 146 0 147 253 -6 c169 -4 272 -11 312 -21z"/>
</g>
</svg>
